<svg version="1.1" xmlns="http://www.w3.org/2000/svg" xmlns:xlink="http://www.w3.org/1999/xlink" viewBox="0 0 172 172"><g fill="none" fill-rule="nonzero" stroke="none" stroke-width="1" stroke-linecap="butt" stroke-linejoin="miter" stroke-miterlimit="10" stroke-dasharray="" stroke-dashoffset="0" font-family="none" font-weight="none" font-size="none" text-anchor="none" style="mix-blend-mode: normal"><path d="M0,172v-172h172v172z" fill="none"></path><g fill="#ee6a80"><path d="M99.73313,29.40125c-17.93906,0 -33.05625,10.70969 -40.35281,25.88063c-3.89688,-2.6875 -8.35813,-4.63594 -13.4375,-4.63594c-12.77906,0 -23.05875,10.11844 -23.82469,22.70938c-12.80594,4.63594 -22.11813,16.60875 -22.11813,30.97344c0,18.34219 14.92906,33.27125 33.27125,33.27125h108.10469c16.8775,0 30.62406,-13.74656 30.62406,-30.62406c0,-15.65469 -11.99969,-28.13812 -27.1975,-29.92531c0.05375,-0.80625 0.16125,-1.58563 0.16125,-2.41875c0,-24.94 -20.29062,-45.23063 -45.23062,-45.23063zM99.73313,36.28125c21.23125,0 38.35062,17.13281 38.35062,38.35063c0,1.57219 -0.12094,3.14437 -0.3225,4.75687l-0.48375,3.85656h3.89688c0.41656,0 0.47031,0 0.20156,0c13.15531,0 23.74406,10.58875 23.74406,23.73062c0,13.15531 -10.58875,23.74406 -23.74406,23.74406h-108.10469c-14.62,0 -26.39125,-11.77125 -26.39125,-26.39125c0,-12.16094 8.21031,-22.31969 19.35,-25.39687l2.62031,-0.72563l-0.09406,-2.70094c-0.01344,-0.48375 -0.04031,-0.72563 -0.04031,-0.7525c0,-9.55406 7.67281,-17.22688 17.22688,-17.22688c4.78375,0 9.07031,1.935 12.18781,5.0525l3.78937,3.80281l1.88125,-5.03906c5.40188,-14.60656 19.39031,-25.06094 35.93188,-25.06094zM83.62156,61.92c-0.68531,0 -1.075,0.38969 -1.075,1.075v39.13c0,0.68531 0.38969,1.075 1.075,1.075h8.34469c0.68531,0 0.9675,-0.38969 0.9675,-1.075v-39.13c0,-0.68531 -0.28219,-1.075 -0.9675,-1.075zM83.635,110.06656c-0.68531,0 -1.075,0.28219 -1.075,0.9675v8.29094c0,0.68531 0.38969,1.075 1.075,1.075h8.18344c0.68531,0 1.075,-0.38969 1.075,-1.075v-8.29094c0,-0.68531 -0.38969,-0.9675 -1.075,-0.9675z"></path></g></g></svg>